<mxfile host="Electron" modified="2024-04-22T13:12:58.398Z" agent="Mozilla/5.0 (Windows NT 10.0; Win64; x64) AppleWebKit/537.36 (KHTML, like Gecko) draw.io/24.2.5 Chrome/120.0.6099.109 Electron/28.1.0 Safari/537.36" etag="1ilKdVPJ3udKT4wqcwi3" version="24.2.5" type="device" pages="3">
  <diagram id="yicsfuWalgjghllazFk_" name="Pliha de navegação Activity">
    <mxGraphModel dx="2074" dy="2005" grid="1" gridSize="10" guides="1" tooltips="1" connect="1" arrows="1" fold="1" page="1" pageScale="1" pageWidth="827" pageHeight="1169" math="0" shadow="0">
      <root>
        <mxCell id="0" />
        <mxCell id="1" parent="0" />
        <mxCell id="RnMvbxpYT4PTCCiftiXC-25" value="" style="rounded=1;whiteSpace=wrap;html=1;fillColor=#eeeeee;strokeColor=#B3B3B3;strokeWidth=4;" vertex="1" parent="1">
          <mxGeometry x="840" y="180" width="180" height="260" as="geometry" />
        </mxCell>
        <mxCell id="RnMvbxpYT4PTCCiftiXC-1" value="&lt;h1 style=&quot;margin-top: 0px;&quot;&gt;Pliha de navegação Activity&lt;/h1&gt;" style="text;html=1;whiteSpace=wrap;overflow=hidden;rounded=0;" vertex="1" parent="1">
          <mxGeometry x="40" y="-80" width="250" height="120" as="geometry" />
        </mxCell>
        <mxCell id="RnMvbxpYT4PTCCiftiXC-16" style="edgeStyle=orthogonalEdgeStyle;rounded=0;orthogonalLoop=1;jettySize=auto;html=1;entryX=0;entryY=0.5;entryDx=0;entryDy=0;exitX=0.639;exitY=-0.006;exitDx=0;exitDy=0;exitPerimeter=0;" edge="1" parent="1" source="RnMvbxpYT4PTCCiftiXC-2" target="RnMvbxpYT4PTCCiftiXC-15">
          <mxGeometry relative="1" as="geometry" />
        </mxCell>
        <mxCell id="RnMvbxpYT4PTCCiftiXC-2" value="" style="rounded=1;whiteSpace=wrap;html=1;fillColor=#eeeeee;strokeColor=#B3B3B3;strokeWidth=4;" vertex="1" parent="1">
          <mxGeometry x="40" y="180" width="180" height="220" as="geometry" />
        </mxCell>
        <mxCell id="RnMvbxpYT4PTCCiftiXC-19" style="edgeStyle=orthogonalEdgeStyle;rounded=0;orthogonalLoop=1;jettySize=auto;html=1;entryX=0;entryY=0.5;entryDx=0;entryDy=0;exitX=0.694;exitY=-0.003;exitDx=0;exitDy=0;exitPerimeter=0;" edge="1" parent="1" source="RnMvbxpYT4PTCCiftiXC-3" target="RnMvbxpYT4PTCCiftiXC-18">
          <mxGeometry relative="1" as="geometry" />
        </mxCell>
        <mxCell id="RnMvbxpYT4PTCCiftiXC-3" value="" style="rounded=1;whiteSpace=wrap;html=1;fillColor=#eeeeee;strokeColor=#B3B3B3;strokeWidth=4;" vertex="1" parent="1">
          <mxGeometry x="250" y="180" width="180" height="260" as="geometry" />
        </mxCell>
        <mxCell id="RnMvbxpYT4PTCCiftiXC-29" style="edgeStyle=orthogonalEdgeStyle;rounded=0;orthogonalLoop=1;jettySize=auto;html=1;entryX=0;entryY=0.5;entryDx=0;entryDy=0;exitX=0.617;exitY=-0.003;exitDx=0;exitDy=0;exitPerimeter=0;" edge="1" parent="1" source="RnMvbxpYT4PTCCiftiXC-5" target="RnMvbxpYT4PTCCiftiXC-28">
          <mxGeometry relative="1" as="geometry" />
        </mxCell>
        <mxCell id="RnMvbxpYT4PTCCiftiXC-5" value="" style="rounded=1;whiteSpace=wrap;html=1;fillColor=#eeeeee;strokeColor=#B3B3B3;strokeWidth=4;" vertex="1" parent="1">
          <mxGeometry x="460" y="180" width="180" height="350" as="geometry" />
        </mxCell>
        <mxCell id="RnMvbxpYT4PTCCiftiXC-7" value="&lt;b&gt;&lt;font style=&quot;font-size: 14px;&quot;&gt;Back Stack&lt;/font&gt;&lt;/b&gt;" style="text;html=1;align=center;verticalAlign=middle;whiteSpace=wrap;rounded=0;" vertex="1" parent="1">
          <mxGeometry x="80" y="350" width="100" height="30" as="geometry" />
        </mxCell>
        <mxCell id="RnMvbxpYT4PTCCiftiXC-8" value="&lt;b&gt;&lt;font style=&quot;font-size: 15px;&quot;&gt;Activity 1&lt;/font&gt;&lt;/b&gt;" style="rounded=1;whiteSpace=wrap;html=1;fillColor=#1ba1e2;fontColor=#ffffff;strokeColor=#006EAF;" vertex="1" parent="1">
          <mxGeometry x="280" y="350" width="120" height="60" as="geometry" />
        </mxCell>
        <mxCell id="RnMvbxpYT4PTCCiftiXC-10" value="&lt;b&gt;&lt;font style=&quot;font-size: 15px;&quot;&gt;Activity 1&lt;/font&gt;&lt;/b&gt;" style="rounded=1;whiteSpace=wrap;html=1;fillColor=#1ba1e2;fontColor=#ffffff;strokeColor=#006EAF;" vertex="1" parent="1">
          <mxGeometry x="490" y="440" width="120" height="60" as="geometry" />
        </mxCell>
        <mxCell id="RnMvbxpYT4PTCCiftiXC-11" value="&lt;b&gt;&lt;font style=&quot;font-size: 15px;&quot;&gt;Activity 2&lt;/font&gt;&lt;/b&gt;" style="rounded=1;whiteSpace=wrap;html=1;fillColor=#1ba1e2;fontColor=#ffffff;strokeColor=#006EAF;" vertex="1" parent="1">
          <mxGeometry x="490" y="350" width="120" height="60" as="geometry" />
        </mxCell>
        <mxCell id="RnMvbxpYT4PTCCiftiXC-13" value="" style="rounded=0;whiteSpace=wrap;html=1;fillColor=#FFF2CC;fontColor=#000000;strokeColor=#B09500;dashed=1;fillStyle=zigzag-line;strokeWidth=2;" vertex="1" parent="1">
          <mxGeometry x="50" y="210" width="1090" height="125" as="geometry" />
        </mxCell>
        <mxCell id="RnMvbxpYT4PTCCiftiXC-6" value="&lt;b&gt;&lt;font style=&quot;font-size: 15px;&quot;&gt;Activity 1&lt;/font&gt;&lt;/b&gt;" style="rounded=1;whiteSpace=wrap;html=1;fillColor=#1ba1e2;fontColor=#ffffff;strokeColor=#006EAF;" vertex="1" parent="1">
          <mxGeometry x="70" y="260" width="120" height="60" as="geometry" />
        </mxCell>
        <mxCell id="RnMvbxpYT4PTCCiftiXC-9" value="&lt;b&gt;&lt;font style=&quot;font-size: 15px;&quot;&gt;Activity 2&lt;/font&gt;&lt;/b&gt;" style="rounded=1;whiteSpace=wrap;html=1;fillColor=#1ba1e2;fontColor=#ffffff;strokeColor=#006EAF;" vertex="1" parent="1">
          <mxGeometry x="280" y="260" width="120" height="60" as="geometry" />
        </mxCell>
        <mxCell id="RnMvbxpYT4PTCCiftiXC-12" value="&lt;b&gt;&lt;font style=&quot;font-size: 15px;&quot;&gt;Activity 3&lt;/font&gt;&lt;/b&gt;" style="rounded=1;whiteSpace=wrap;html=1;fillColor=#1ba1e2;fontColor=#ffffff;strokeColor=#006EAF;" vertex="1" parent="1">
          <mxGeometry x="490" y="260" width="120" height="60" as="geometry" />
        </mxCell>
        <mxCell id="RnMvbxpYT4PTCCiftiXC-14" value="&lt;b&gt;&lt;font style=&quot;font-size: 14px;&quot;&gt;Foreground Activity&lt;/font&gt;&lt;/b&gt;" style="text;html=1;align=center;verticalAlign=middle;whiteSpace=wrap;rounded=0;" vertex="1" parent="1">
          <mxGeometry x="60" y="220" width="150" height="30" as="geometry" />
        </mxCell>
        <mxCell id="RnMvbxpYT4PTCCiftiXC-17" style="edgeStyle=orthogonalEdgeStyle;rounded=0;orthogonalLoop=1;jettySize=auto;html=1;entryX=0.394;entryY=-0.006;entryDx=0;entryDy=0;exitX=1;exitY=0.5;exitDx=0;exitDy=0;entryPerimeter=0;" edge="1" parent="1" source="RnMvbxpYT4PTCCiftiXC-15" target="RnMvbxpYT4PTCCiftiXC-3">
          <mxGeometry relative="1" as="geometry" />
        </mxCell>
        <mxCell id="RnMvbxpYT4PTCCiftiXC-15" value="&lt;font style=&quot;font-size: 14px;&quot;&gt;&lt;b&gt;Abrir Activity 2&lt;/b&gt;&lt;/font&gt;" style="rounded=0;whiteSpace=wrap;html=1;" vertex="1" parent="1">
          <mxGeometry x="180" y="70" width="120" height="60" as="geometry" />
        </mxCell>
        <mxCell id="RnMvbxpYT4PTCCiftiXC-21" style="edgeStyle=orthogonalEdgeStyle;rounded=0;orthogonalLoop=1;jettySize=auto;html=1;exitX=1;exitY=0.5;exitDx=0;exitDy=0;entryX=0.461;entryY=0;entryDx=0;entryDy=0;entryPerimeter=0;" edge="1" parent="1" source="RnMvbxpYT4PTCCiftiXC-18" target="RnMvbxpYT4PTCCiftiXC-5">
          <mxGeometry relative="1" as="geometry" />
        </mxCell>
        <mxCell id="RnMvbxpYT4PTCCiftiXC-18" value="&lt;font style=&quot;font-size: 14px;&quot;&gt;&lt;b&gt;Abrir Activity 3&lt;/b&gt;&lt;/font&gt;" style="rounded=0;whiteSpace=wrap;html=1;" vertex="1" parent="1">
          <mxGeometry x="400" y="70" width="120" height="60" as="geometry" />
        </mxCell>
        <mxCell id="RnMvbxpYT4PTCCiftiXC-22" value="&lt;font style=&quot;font-size: 14px;&quot;&gt;&lt;b&gt;Activity 3&lt;/b&gt;&lt;/font&gt;" style="ellipse;shape=cloud;whiteSpace=wrap;html=1;" vertex="1" parent="1">
          <mxGeometry x="660" y="240" width="120" height="80" as="geometry" />
        </mxCell>
        <mxCell id="RnMvbxpYT4PTCCiftiXC-24" style="edgeStyle=orthogonalEdgeStyle;rounded=0;orthogonalLoop=1;jettySize=auto;html=1;" edge="1" parent="1" source="RnMvbxpYT4PTCCiftiXC-23" target="RnMvbxpYT4PTCCiftiXC-22">
          <mxGeometry relative="1" as="geometry" />
        </mxCell>
        <mxCell id="RnMvbxpYT4PTCCiftiXC-23" value="&lt;font style=&quot;font-size: 14px;&quot;&gt;&lt;b&gt;Activity 3 é destruída&lt;/b&gt;&lt;/font&gt;" style="rounded=0;whiteSpace=wrap;html=1;" vertex="1" parent="1">
          <mxGeometry x="660" y="410" width="120" height="60" as="geometry" />
        </mxCell>
        <mxCell id="RnMvbxpYT4PTCCiftiXC-26" value="&lt;b&gt;&lt;font style=&quot;font-size: 15px;&quot;&gt;Activity 1&lt;/font&gt;&lt;/b&gt;" style="rounded=1;whiteSpace=wrap;html=1;fillColor=#1ba1e2;fontColor=#ffffff;strokeColor=#006EAF;" vertex="1" parent="1">
          <mxGeometry x="870" y="350" width="120" height="60" as="geometry" />
        </mxCell>
        <mxCell id="RnMvbxpYT4PTCCiftiXC-27" value="&lt;b&gt;&lt;font style=&quot;font-size: 15px;&quot;&gt;Activity 2&lt;/font&gt;&lt;/b&gt;" style="rounded=1;whiteSpace=wrap;html=1;fillColor=#1ba1e2;fontColor=#ffffff;strokeColor=#006EAF;" vertex="1" parent="1">
          <mxGeometry x="870" y="260" width="120" height="60" as="geometry" />
        </mxCell>
        <mxCell id="RnMvbxpYT4PTCCiftiXC-30" style="edgeStyle=orthogonalEdgeStyle;rounded=0;orthogonalLoop=1;jettySize=auto;html=1;entryX=0.5;entryY=0;entryDx=0;entryDy=0;" edge="1" parent="1" source="RnMvbxpYT4PTCCiftiXC-28" target="RnMvbxpYT4PTCCiftiXC-25">
          <mxGeometry relative="1" as="geometry" />
        </mxCell>
        <mxCell id="RnMvbxpYT4PTCCiftiXC-28" value="&lt;font style=&quot;font-size: 14px;&quot;&gt;&lt;b&gt;Voltar para a Activity 2&lt;/b&gt;&lt;/font&gt;" style="rounded=0;whiteSpace=wrap;html=1;" vertex="1" parent="1">
          <mxGeometry x="680" y="70" width="120" height="60" as="geometry" />
        </mxCell>
      </root>
    </mxGraphModel>
  </diagram>
  <diagram id="GhMOylYR0bRZpz5VC95j" name="Ciclo de vida de uma Activity">
    <mxGraphModel dx="2901" dy="836" grid="1" gridSize="10" guides="1" tooltips="1" connect="1" arrows="1" fold="1" page="1" pageScale="1" pageWidth="827" pageHeight="1169" math="0" shadow="0">
      <root>
        <mxCell id="0" />
        <mxCell id="1" parent="0" />
        <mxCell id="tlTMyXQ21Js0WOqxq2s8-3" style="edgeStyle=orthogonalEdgeStyle;rounded=0;orthogonalLoop=1;jettySize=auto;html=1;entryX=0.5;entryY=0;entryDx=0;entryDy=0;" edge="1" parent="1" source="tlTMyXQ21Js0WOqxq2s8-1" target="tlTMyXQ21Js0WOqxq2s8-2">
          <mxGeometry relative="1" as="geometry" />
        </mxCell>
        <mxCell id="tlTMyXQ21Js0WOqxq2s8-1" value="Activity iniciada" style="rounded=1;whiteSpace=wrap;html=1;fillColor=#dae8fc;strokeColor=#6c8ebf;" vertex="1" parent="1">
          <mxGeometry x="354" y="20" width="120" height="60" as="geometry" />
        </mxCell>
        <mxCell id="tlTMyXQ21Js0WOqxq2s8-5" style="edgeStyle=orthogonalEdgeStyle;rounded=0;orthogonalLoop=1;jettySize=auto;html=1;entryX=0.5;entryY=0;entryDx=0;entryDy=0;" edge="1" parent="1" source="tlTMyXQ21Js0WOqxq2s8-2" target="tlTMyXQ21Js0WOqxq2s8-4">
          <mxGeometry relative="1" as="geometry" />
        </mxCell>
        <mxCell id="tlTMyXQ21Js0WOqxq2s8-2" value="onCreate()" style="rounded=0;whiteSpace=wrap;html=1;fillColor=#bac8d3;strokeColor=#23445d;" vertex="1" parent="1">
          <mxGeometry x="354" y="120" width="120" height="60" as="geometry" />
        </mxCell>
        <mxCell id="tlTMyXQ21Js0WOqxq2s8-7" style="edgeStyle=orthogonalEdgeStyle;rounded=0;orthogonalLoop=1;jettySize=auto;html=1;entryX=0.5;entryY=0;entryDx=0;entryDy=0;" edge="1" parent="1" source="tlTMyXQ21Js0WOqxq2s8-4" target="tlTMyXQ21Js0WOqxq2s8-6">
          <mxGeometry relative="1" as="geometry" />
        </mxCell>
        <mxCell id="tlTMyXQ21Js0WOqxq2s8-4" value="onStart()" style="rounded=0;whiteSpace=wrap;html=1;fillColor=#bac8d3;strokeColor=#23445d;" vertex="1" parent="1">
          <mxGeometry x="354" y="220" width="120" height="60" as="geometry" />
        </mxCell>
        <mxCell id="tlTMyXQ21Js0WOqxq2s8-9" style="edgeStyle=orthogonalEdgeStyle;rounded=0;orthogonalLoop=1;jettySize=auto;html=1;entryX=0.5;entryY=0;entryDx=0;entryDy=0;" edge="1" parent="1" source="tlTMyXQ21Js0WOqxq2s8-6" target="tlTMyXQ21Js0WOqxq2s8-8">
          <mxGeometry relative="1" as="geometry" />
        </mxCell>
        <mxCell id="tlTMyXQ21Js0WOqxq2s8-6" value="onResume()" style="rounded=0;whiteSpace=wrap;html=1;fillColor=#bac8d3;strokeColor=#23445d;" vertex="1" parent="1">
          <mxGeometry x="354" y="320" width="120" height="60" as="geometry" />
        </mxCell>
        <mxCell id="tlTMyXQ21Js0WOqxq2s8-11" style="edgeStyle=orthogonalEdgeStyle;rounded=0;orthogonalLoop=1;jettySize=auto;html=1;entryX=0.5;entryY=0;entryDx=0;entryDy=0;" edge="1" parent="1" source="tlTMyXQ21Js0WOqxq2s8-8" target="tlTMyXQ21Js0WOqxq2s8-10">
          <mxGeometry relative="1" as="geometry" />
        </mxCell>
        <mxCell id="tlTMyXQ21Js0WOqxq2s8-8" value="Activity em&amp;nbsp;&lt;div&gt;execução&lt;/div&gt;" style="rounded=1;whiteSpace=wrap;html=1;fillColor=#d5e8d4;strokeColor=#82b366;" vertex="1" parent="1">
          <mxGeometry x="354" y="420" width="120" height="60" as="geometry" />
        </mxCell>
        <mxCell id="tlTMyXQ21Js0WOqxq2s8-13" style="edgeStyle=orthogonalEdgeStyle;rounded=0;orthogonalLoop=1;jettySize=auto;html=1;entryX=0.5;entryY=0;entryDx=0;entryDy=0;" edge="1" parent="1" source="tlTMyXQ21Js0WOqxq2s8-10" target="tlTMyXQ21Js0WOqxq2s8-12">
          <mxGeometry relative="1" as="geometry" />
        </mxCell>
        <mxCell id="tlTMyXQ21Js0WOqxq2s8-10" value="Outra Activity&amp;nbsp;&lt;div&gt;toma a frente&lt;/div&gt;" style="rounded=0;whiteSpace=wrap;html=1;" vertex="1" parent="1">
          <mxGeometry x="354" y="524.5" width="120" height="60" as="geometry" />
        </mxCell>
        <mxCell id="tlTMyXQ21Js0WOqxq2s8-15" style="edgeStyle=orthogonalEdgeStyle;rounded=0;orthogonalLoop=1;jettySize=auto;html=1;entryX=0.5;entryY=0;entryDx=0;entryDy=0;" edge="1" parent="1" source="tlTMyXQ21Js0WOqxq2s8-12" target="tlTMyXQ21Js0WOqxq2s8-14">
          <mxGeometry relative="1" as="geometry" />
        </mxCell>
        <mxCell id="tlTMyXQ21Js0WOqxq2s8-25" style="edgeStyle=orthogonalEdgeStyle;rounded=0;orthogonalLoop=1;jettySize=auto;html=1;entryX=0.5;entryY=1;entryDx=0;entryDy=0;" edge="1" parent="1" source="tlTMyXQ21Js0WOqxq2s8-12" target="tlTMyXQ21Js0WOqxq2s8-24">
          <mxGeometry relative="1" as="geometry" />
        </mxCell>
        <mxCell id="tlTMyXQ21Js0WOqxq2s8-12" value="onPause()" style="rounded=0;whiteSpace=wrap;html=1;fillColor=#bac8d3;strokeColor=#23445d;" vertex="1" parent="1">
          <mxGeometry x="354" y="630" width="120" height="60" as="geometry" />
        </mxCell>
        <mxCell id="tlTMyXQ21Js0WOqxq2s8-17" style="edgeStyle=orthogonalEdgeStyle;rounded=0;orthogonalLoop=1;jettySize=auto;html=1;entryX=0.5;entryY=0;entryDx=0;entryDy=0;" edge="1" parent="1" source="tlTMyXQ21Js0WOqxq2s8-14" target="tlTMyXQ21Js0WOqxq2s8-16">
          <mxGeometry relative="1" as="geometry" />
        </mxCell>
        <mxCell id="tlTMyXQ21Js0WOqxq2s8-14" value="Activity não está&lt;div&gt;mais visível&lt;/div&gt;" style="rounded=0;whiteSpace=wrap;html=1;" vertex="1" parent="1">
          <mxGeometry x="354" y="730" width="120" height="60" as="geometry" />
        </mxCell>
        <mxCell id="tlTMyXQ21Js0WOqxq2s8-19" style="edgeStyle=orthogonalEdgeStyle;rounded=0;orthogonalLoop=1;jettySize=auto;html=1;entryX=0.5;entryY=0;entryDx=0;entryDy=0;" edge="1" parent="1" source="tlTMyXQ21Js0WOqxq2s8-16" target="tlTMyXQ21Js0WOqxq2s8-18">
          <mxGeometry relative="1" as="geometry" />
        </mxCell>
        <mxCell id="tlTMyXQ21Js0WOqxq2s8-30" style="edgeStyle=orthogonalEdgeStyle;rounded=0;orthogonalLoop=1;jettySize=auto;html=1;entryX=0.5;entryY=1;entryDx=0;entryDy=0;" edge="1" parent="1" source="tlTMyXQ21Js0WOqxq2s8-16" target="tlTMyXQ21Js0WOqxq2s8-29">
          <mxGeometry relative="1" as="geometry" />
        </mxCell>
        <mxCell id="tlTMyXQ21Js0WOqxq2s8-40" style="edgeStyle=orthogonalEdgeStyle;rounded=0;orthogonalLoop=1;jettySize=auto;html=1;entryX=0.5;entryY=1;entryDx=0;entryDy=0;" edge="1" parent="1" source="tlTMyXQ21Js0WOqxq2s8-16" target="tlTMyXQ21Js0WOqxq2s8-39">
          <mxGeometry relative="1" as="geometry" />
        </mxCell>
        <mxCell id="tlTMyXQ21Js0WOqxq2s8-16" value="onStop()" style="rounded=0;whiteSpace=wrap;html=1;fillColor=#bac8d3;strokeColor=#23445d;" vertex="1" parent="1">
          <mxGeometry x="354" y="830" width="120" height="60" as="geometry" />
        </mxCell>
        <mxCell id="tlTMyXQ21Js0WOqxq2s8-21" style="edgeStyle=orthogonalEdgeStyle;rounded=0;orthogonalLoop=1;jettySize=auto;html=1;entryX=0.5;entryY=0;entryDx=0;entryDy=0;" edge="1" parent="1" source="tlTMyXQ21Js0WOqxq2s8-18" target="tlTMyXQ21Js0WOqxq2s8-20">
          <mxGeometry relative="1" as="geometry" />
        </mxCell>
        <mxCell id="tlTMyXQ21Js0WOqxq2s8-18" value="Activity é finalizada ou está sendo destruída" style="rounded=0;whiteSpace=wrap;html=1;" vertex="1" parent="1">
          <mxGeometry x="354" y="930" width="120" height="60" as="geometry" />
        </mxCell>
        <mxCell id="tlTMyXQ21Js0WOqxq2s8-23" style="edgeStyle=orthogonalEdgeStyle;rounded=0;orthogonalLoop=1;jettySize=auto;html=1;entryX=0.5;entryY=0;entryDx=0;entryDy=0;" edge="1" parent="1" source="tlTMyXQ21Js0WOqxq2s8-20" target="tlTMyXQ21Js0WOqxq2s8-22">
          <mxGeometry relative="1" as="geometry" />
        </mxCell>
        <mxCell id="tlTMyXQ21Js0WOqxq2s8-20" value="onDestroy()" style="rounded=0;whiteSpace=wrap;html=1;fillColor=#bac8d3;strokeColor=#23445d;" vertex="1" parent="1">
          <mxGeometry x="354" y="1030" width="120" height="60" as="geometry" />
        </mxCell>
        <mxCell id="tlTMyXQ21Js0WOqxq2s8-22" value="Activity finalizada" style="rounded=1;whiteSpace=wrap;html=1;fillColor=#fad7ac;strokeColor=#b46504;" vertex="1" parent="1">
          <mxGeometry x="354" y="1130" width="120" height="60" as="geometry" />
        </mxCell>
        <mxCell id="tlTMyXQ21Js0WOqxq2s8-28" style="edgeStyle=orthogonalEdgeStyle;rounded=0;orthogonalLoop=1;jettySize=auto;html=1;entryX=1;entryY=0.5;entryDx=0;entryDy=0;exitX=0.5;exitY=0;exitDx=0;exitDy=0;" edge="1" parent="1" source="tlTMyXQ21Js0WOqxq2s8-24" target="tlTMyXQ21Js0WOqxq2s8-6">
          <mxGeometry relative="1" as="geometry" />
        </mxCell>
        <mxCell id="tlTMyXQ21Js0WOqxq2s8-24" value="Usuário retorna&amp;nbsp;&lt;div&gt;para a Activity&lt;/div&gt;" style="rounded=0;whiteSpace=wrap;html=1;" vertex="1" parent="1">
          <mxGeometry x="560" y="525" width="120" height="60" as="geometry" />
        </mxCell>
        <mxCell id="tlTMyXQ21Js0WOqxq2s8-32" style="edgeStyle=orthogonalEdgeStyle;rounded=0;orthogonalLoop=1;jettySize=auto;html=1;" edge="1" parent="1" source="tlTMyXQ21Js0WOqxq2s8-29" target="tlTMyXQ21Js0WOqxq2s8-31">
          <mxGeometry relative="1" as="geometry" />
        </mxCell>
        <mxCell id="tlTMyXQ21Js0WOqxq2s8-29" value="Usuário navega&amp;nbsp;&lt;div&gt;para a Activity&lt;/div&gt;" style="rounded=0;whiteSpace=wrap;html=1;" vertex="1" parent="1">
          <mxGeometry x="730" y="730" width="120" height="60" as="geometry" />
        </mxCell>
        <mxCell id="tlTMyXQ21Js0WOqxq2s8-33" style="edgeStyle=orthogonalEdgeStyle;rounded=0;orthogonalLoop=1;jettySize=auto;html=1;entryX=1;entryY=0.5;entryDx=0;entryDy=0;" edge="1" parent="1" source="tlTMyXQ21Js0WOqxq2s8-31" target="tlTMyXQ21Js0WOqxq2s8-4">
          <mxGeometry relative="1" as="geometry" />
        </mxCell>
        <mxCell id="tlTMyXQ21Js0WOqxq2s8-31" value="onRestart()" style="rounded=0;whiteSpace=wrap;html=1;fillColor=#bac8d3;strokeColor=#23445d;" vertex="1" parent="1">
          <mxGeometry x="730" y="220" width="120" height="60" as="geometry" />
        </mxCell>
        <mxCell id="tlTMyXQ21Js0WOqxq2s8-42" style="edgeStyle=orthogonalEdgeStyle;rounded=0;orthogonalLoop=1;jettySize=auto;html=1;entryX=0.5;entryY=1;entryDx=0;entryDy=0;" edge="1" parent="1" source="tlTMyXQ21Js0WOqxq2s8-39" target="tlTMyXQ21Js0WOqxq2s8-41">
          <mxGeometry relative="1" as="geometry" />
        </mxCell>
        <mxCell id="tlTMyXQ21Js0WOqxq2s8-39" value="Activity é finalizada ou está sendo destruída" style="rounded=0;whiteSpace=wrap;html=1;" vertex="1" parent="1">
          <mxGeometry x="100" y="660" width="120" height="60" as="geometry" />
        </mxCell>
        <mxCell id="tlTMyXQ21Js0WOqxq2s8-44" style="edgeStyle=orthogonalEdgeStyle;rounded=0;orthogonalLoop=1;jettySize=auto;html=1;entryX=0.5;entryY=1;entryDx=0;entryDy=0;" edge="1" parent="1" source="tlTMyXQ21Js0WOqxq2s8-41" target="tlTMyXQ21Js0WOqxq2s8-43">
          <mxGeometry relative="1" as="geometry" />
        </mxCell>
        <mxCell id="tlTMyXQ21Js0WOqxq2s8-41" value="Processo do aplicativo encerrado" style="rounded=1;whiteSpace=wrap;html=1;fillColor=#fad7ac;strokeColor=#b46504;" vertex="1" parent="1">
          <mxGeometry x="100" y="460" width="120" height="60" as="geometry" />
        </mxCell>
        <mxCell id="tlTMyXQ21Js0WOqxq2s8-45" style="edgeStyle=orthogonalEdgeStyle;rounded=0;orthogonalLoop=1;jettySize=auto;html=1;entryX=0;entryY=0.5;entryDx=0;entryDy=0;exitX=0.5;exitY=0;exitDx=0;exitDy=0;" edge="1" parent="1" source="tlTMyXQ21Js0WOqxq2s8-43" target="tlTMyXQ21Js0WOqxq2s8-2">
          <mxGeometry relative="1" as="geometry" />
        </mxCell>
        <mxCell id="tlTMyXQ21Js0WOqxq2s8-43" value="Usuário navega&amp;nbsp;&lt;div&gt;para a Activity&lt;/div&gt;" style="rounded=0;whiteSpace=wrap;html=1;" vertex="1" parent="1">
          <mxGeometry x="100" y="250" width="120" height="60" as="geometry" />
        </mxCell>
        <mxCell id="bmueGJoCq7UdmvVVIwZB-1" value="&lt;h1 style=&quot;margin-top: 0px;&quot;&gt;Ciclo de vida de uma Activity&lt;/h1&gt;" style="text;html=1;whiteSpace=wrap;overflow=hidden;rounded=0;" vertex="1" parent="1">
          <mxGeometry x="-160" y="20" width="250" height="120" as="geometry" />
        </mxCell>
      </root>
    </mxGraphModel>
  </diagram>
  <diagram name="Hierarquia de Views" id="OwXFo2BE2Ztw53fUayF7">
    <mxGraphModel dx="2074" dy="836" grid="1" gridSize="10" guides="1" tooltips="1" connect="1" arrows="1" fold="1" page="1" pageScale="1" pageWidth="827" pageHeight="1169" math="0" shadow="0">
      <root>
        <mxCell id="0" />
        <mxCell id="1" parent="0" />
        <mxCell id="uUt5yb1ADxC-Nz_1EnEv-8" style="edgeStyle=orthogonalEdgeStyle;rounded=0;orthogonalLoop=1;jettySize=auto;html=1;entryX=0;entryY=0.5;entryDx=0;entryDy=0;" parent="1" source="uUt5yb1ADxC-Nz_1EnEv-1" target="uUt5yb1ADxC-Nz_1EnEv-2" edge="1">
          <mxGeometry relative="1" as="geometry" />
        </mxCell>
        <mxCell id="uUt5yb1ADxC-Nz_1EnEv-9" style="edgeStyle=orthogonalEdgeStyle;rounded=0;orthogonalLoop=1;jettySize=auto;html=1;entryX=0;entryY=0.5;entryDx=0;entryDy=0;" parent="1" source="uUt5yb1ADxC-Nz_1EnEv-1" target="uUt5yb1ADxC-Nz_1EnEv-3" edge="1">
          <mxGeometry relative="1" as="geometry" />
        </mxCell>
        <mxCell id="uUt5yb1ADxC-Nz_1EnEv-10" style="edgeStyle=orthogonalEdgeStyle;rounded=0;orthogonalLoop=1;jettySize=auto;html=1;entryX=0;entryY=0.5;entryDx=0;entryDy=0;" parent="1" source="uUt5yb1ADxC-Nz_1EnEv-1" target="uUt5yb1ADxC-Nz_1EnEv-4" edge="1">
          <mxGeometry relative="1" as="geometry" />
        </mxCell>
        <mxCell id="uUt5yb1ADxC-Nz_1EnEv-11" style="edgeStyle=orthogonalEdgeStyle;rounded=0;orthogonalLoop=1;jettySize=auto;html=1;entryX=0;entryY=0.5;entryDx=0;entryDy=0;" parent="1" source="uUt5yb1ADxC-Nz_1EnEv-1" target="uUt5yb1ADxC-Nz_1EnEv-5" edge="1">
          <mxGeometry relative="1" as="geometry" />
        </mxCell>
        <mxCell id="uUt5yb1ADxC-Nz_1EnEv-13" style="edgeStyle=orthogonalEdgeStyle;rounded=0;orthogonalLoop=1;jettySize=auto;html=1;entryX=0;entryY=0.5;entryDx=0;entryDy=0;" parent="1" source="uUt5yb1ADxC-Nz_1EnEv-1" target="uUt5yb1ADxC-Nz_1EnEv-7" edge="1">
          <mxGeometry relative="1" as="geometry" />
        </mxCell>
        <mxCell id="uUt5yb1ADxC-Nz_1EnEv-1" value="View" style="rounded=1;whiteSpace=wrap;html=1;fillColor=#0050ef;fontColor=#ffffff;strokeColor=#001DBC;" parent="1" vertex="1">
          <mxGeometry x="40" y="578.75" width="120" height="60" as="geometry" />
        </mxCell>
        <mxCell id="uUt5yb1ADxC-Nz_1EnEv-20" style="edgeStyle=orthogonalEdgeStyle;rounded=0;orthogonalLoop=1;jettySize=auto;html=1;entryX=0;entryY=0.5;entryDx=0;entryDy=0;" parent="1" source="uUt5yb1ADxC-Nz_1EnEv-2" target="uUt5yb1ADxC-Nz_1EnEv-14" edge="1">
          <mxGeometry relative="1" as="geometry" />
        </mxCell>
        <mxCell id="uUt5yb1ADxC-Nz_1EnEv-21" style="edgeStyle=orthogonalEdgeStyle;rounded=0;orthogonalLoop=1;jettySize=auto;html=1;entryX=0;entryY=0.5;entryDx=0;entryDy=0;" parent="1" source="uUt5yb1ADxC-Nz_1EnEv-2" target="uUt5yb1ADxC-Nz_1EnEv-15" edge="1">
          <mxGeometry relative="1" as="geometry" />
        </mxCell>
        <mxCell id="uUt5yb1ADxC-Nz_1EnEv-22" style="edgeStyle=orthogonalEdgeStyle;rounded=0;orthogonalLoop=1;jettySize=auto;html=1;entryX=0;entryY=0.5;entryDx=0;entryDy=0;" parent="1" source="uUt5yb1ADxC-Nz_1EnEv-2" target="uUt5yb1ADxC-Nz_1EnEv-16" edge="1">
          <mxGeometry relative="1" as="geometry" />
        </mxCell>
        <mxCell id="uUt5yb1ADxC-Nz_1EnEv-2" value="View Group" style="rounded=1;whiteSpace=wrap;html=1;fillColor=#60a917;fontColor=#ffffff;strokeColor=#2D7600;" parent="1" vertex="1">
          <mxGeometry x="280" y="340" width="120" height="60" as="geometry" />
        </mxCell>
        <mxCell id="uUt5yb1ADxC-Nz_1EnEv-26" style="edgeStyle=orthogonalEdgeStyle;rounded=0;orthogonalLoop=1;jettySize=auto;html=1;entryX=0;entryY=0.5;entryDx=0;entryDy=0;" parent="1" source="uUt5yb1ADxC-Nz_1EnEv-3" target="uUt5yb1ADxC-Nz_1EnEv-23" edge="1">
          <mxGeometry relative="1" as="geometry" />
        </mxCell>
        <mxCell id="uUt5yb1ADxC-Nz_1EnEv-27" style="edgeStyle=orthogonalEdgeStyle;rounded=0;orthogonalLoop=1;jettySize=auto;html=1;entryX=0;entryY=0.5;entryDx=0;entryDy=0;" parent="1" source="uUt5yb1ADxC-Nz_1EnEv-3" target="uUt5yb1ADxC-Nz_1EnEv-24" edge="1">
          <mxGeometry relative="1" as="geometry" />
        </mxCell>
        <mxCell id="uUt5yb1ADxC-Nz_1EnEv-28" style="edgeStyle=orthogonalEdgeStyle;rounded=0;orthogonalLoop=1;jettySize=auto;html=1;entryX=0;entryY=0.5;entryDx=0;entryDy=0;" parent="1" source="uUt5yb1ADxC-Nz_1EnEv-3" target="uUt5yb1ADxC-Nz_1EnEv-25" edge="1">
          <mxGeometry relative="1" as="geometry" />
        </mxCell>
        <mxCell id="uUt5yb1ADxC-Nz_1EnEv-3" value="Text&lt;span style=&quot;background-color: initial;&quot;&gt;View&lt;/span&gt;" style="rounded=1;whiteSpace=wrap;html=1;fillColor=#60a917;fontColor=#ffffff;strokeColor=#2D7600;" parent="1" vertex="1">
          <mxGeometry x="280" y="510" width="120" height="60" as="geometry" />
        </mxCell>
        <mxCell id="uUt5yb1ADxC-Nz_1EnEv-4" value="AnalogClock" style="rounded=1;whiteSpace=wrap;html=1;fillColor=#60a917;fontColor=#ffffff;strokeColor=#2D7600;" parent="1" vertex="1">
          <mxGeometry x="280" y="578.75" width="120" height="60" as="geometry" />
        </mxCell>
        <mxCell id="uUt5yb1ADxC-Nz_1EnEv-30" style="edgeStyle=orthogonalEdgeStyle;rounded=0;orthogonalLoop=1;jettySize=auto;html=1;entryX=0;entryY=0.5;entryDx=0;entryDy=0;" parent="1" source="uUt5yb1ADxC-Nz_1EnEv-5" target="uUt5yb1ADxC-Nz_1EnEv-29" edge="1">
          <mxGeometry relative="1" as="geometry" />
        </mxCell>
        <mxCell id="uUt5yb1ADxC-Nz_1EnEv-5" value="ProgressBar" style="rounded=1;whiteSpace=wrap;html=1;fillColor=#60a917;fontColor=#ffffff;strokeColor=#2D7600;" parent="1" vertex="1">
          <mxGeometry x="280" y="650" width="120" height="60" as="geometry" />
        </mxCell>
        <mxCell id="uUt5yb1ADxC-Nz_1EnEv-33" style="edgeStyle=orthogonalEdgeStyle;rounded=0;orthogonalLoop=1;jettySize=auto;html=1;entryX=0;entryY=0.5;entryDx=0;entryDy=0;" parent="1" source="uUt5yb1ADxC-Nz_1EnEv-6" target="uUt5yb1ADxC-Nz_1EnEv-31" edge="1">
          <mxGeometry relative="1" as="geometry" />
        </mxCell>
        <mxCell id="uUt5yb1ADxC-Nz_1EnEv-34" style="edgeStyle=orthogonalEdgeStyle;rounded=0;orthogonalLoop=1;jettySize=auto;html=1;entryX=0;entryY=0.5;entryDx=0;entryDy=0;" parent="1" source="uUt5yb1ADxC-Nz_1EnEv-6" target="uUt5yb1ADxC-Nz_1EnEv-32" edge="1">
          <mxGeometry relative="1" as="geometry" />
        </mxCell>
        <mxCell id="uUt5yb1ADxC-Nz_1EnEv-6" value="Image&lt;span style=&quot;background-color: initial;&quot;&gt;View&lt;/span&gt;" style="rounded=1;whiteSpace=wrap;html=1;fillColor=#60a917;fontColor=#ffffff;strokeColor=#2D7600;" parent="1" vertex="1">
          <mxGeometry x="280" y="750" width="120" height="60" as="geometry" />
        </mxCell>
        <mxCell id="uUt5yb1ADxC-Nz_1EnEv-36" style="edgeStyle=orthogonalEdgeStyle;rounded=0;orthogonalLoop=1;jettySize=auto;html=1;entryX=0;entryY=0.5;entryDx=0;entryDy=0;" parent="1" source="uUt5yb1ADxC-Nz_1EnEv-7" target="uUt5yb1ADxC-Nz_1EnEv-35" edge="1">
          <mxGeometry relative="1" as="geometry" />
        </mxCell>
        <mxCell id="uUt5yb1ADxC-Nz_1EnEv-7" value="Surface&lt;span style=&quot;background-color: initial;&quot;&gt;View&lt;/span&gt;" style="rounded=1;whiteSpace=wrap;html=1;fillColor=#60a917;fontColor=#ffffff;strokeColor=#2D7600;" parent="1" vertex="1">
          <mxGeometry x="280" y="860" width="120" height="60" as="geometry" />
        </mxCell>
        <mxCell id="uUt5yb1ADxC-Nz_1EnEv-12" style="edgeStyle=orthogonalEdgeStyle;rounded=0;orthogonalLoop=1;jettySize=auto;html=1;entryX=0.008;entryY=0.642;entryDx=0;entryDy=0;entryPerimeter=0;" parent="1" source="uUt5yb1ADxC-Nz_1EnEv-1" target="uUt5yb1ADxC-Nz_1EnEv-6" edge="1">
          <mxGeometry relative="1" as="geometry" />
        </mxCell>
        <mxCell id="uUt5yb1ADxC-Nz_1EnEv-40" style="edgeStyle=orthogonalEdgeStyle;rounded=0;orthogonalLoop=1;jettySize=auto;html=1;entryX=0;entryY=0.5;entryDx=0;entryDy=0;" parent="1" source="uUt5yb1ADxC-Nz_1EnEv-14" target="uUt5yb1ADxC-Nz_1EnEv-37" edge="1">
          <mxGeometry relative="1" as="geometry" />
        </mxCell>
        <mxCell id="uUt5yb1ADxC-Nz_1EnEv-41" style="edgeStyle=orthogonalEdgeStyle;rounded=0;orthogonalLoop=1;jettySize=auto;html=1;entryX=0;entryY=0.5;entryDx=0;entryDy=0;" parent="1" source="uUt5yb1ADxC-Nz_1EnEv-14" target="uUt5yb1ADxC-Nz_1EnEv-38" edge="1">
          <mxGeometry relative="1" as="geometry" />
        </mxCell>
        <mxCell id="uUt5yb1ADxC-Nz_1EnEv-42" style="edgeStyle=orthogonalEdgeStyle;rounded=0;orthogonalLoop=1;jettySize=auto;html=1;entryX=0;entryY=0.5;entryDx=0;entryDy=0;" parent="1" source="uUt5yb1ADxC-Nz_1EnEv-14" target="uUt5yb1ADxC-Nz_1EnEv-39" edge="1">
          <mxGeometry relative="1" as="geometry" />
        </mxCell>
        <mxCell id="uUt5yb1ADxC-Nz_1EnEv-14" value="Frame Layout" style="rounded=1;whiteSpace=wrap;html=1;fillColor=#6a00ff;fontColor=#ffffff;strokeColor=#3700CC;" parent="1" vertex="1">
          <mxGeometry x="520" y="131.25" width="120" height="60" as="geometry" />
        </mxCell>
        <mxCell id="uUt5yb1ADxC-Nz_1EnEv-45" style="edgeStyle=orthogonalEdgeStyle;rounded=0;orthogonalLoop=1;jettySize=auto;html=1;entryX=0;entryY=0.5;entryDx=0;entryDy=0;" parent="1" source="uUt5yb1ADxC-Nz_1EnEv-15" target="uUt5yb1ADxC-Nz_1EnEv-43" edge="1">
          <mxGeometry relative="1" as="geometry" />
        </mxCell>
        <mxCell id="uUt5yb1ADxC-Nz_1EnEv-46" style="edgeStyle=orthogonalEdgeStyle;rounded=0;orthogonalLoop=1;jettySize=auto;html=1;entryX=0;entryY=0.5;entryDx=0;entryDy=0;" parent="1" source="uUt5yb1ADxC-Nz_1EnEv-15" target="uUt5yb1ADxC-Nz_1EnEv-44" edge="1">
          <mxGeometry relative="1" as="geometry" />
        </mxCell>
        <mxCell id="uUt5yb1ADxC-Nz_1EnEv-15" value="Linear Layout" style="rounded=1;whiteSpace=wrap;html=1;fillColor=#6a00ff;fontColor=#ffffff;strokeColor=#3700CC;" parent="1" vertex="1">
          <mxGeometry x="520" y="300" width="120" height="60" as="geometry" />
        </mxCell>
        <mxCell id="uUt5yb1ADxC-Nz_1EnEv-16" value="Relative Layout" style="rounded=1;whiteSpace=wrap;html=1;fillColor=#6a00ff;fontColor=#ffffff;strokeColor=#3700CC;" parent="1" vertex="1">
          <mxGeometry x="520" y="370" width="120" height="60" as="geometry" />
        </mxCell>
        <mxCell id="uUt5yb1ADxC-Nz_1EnEv-23" value="Edit Text" style="rounded=1;whiteSpace=wrap;html=1;fillColor=#6a00ff;fontColor=#ffffff;strokeColor=#3700CC;" parent="1" vertex="1">
          <mxGeometry x="520" y="440" width="120" height="60" as="geometry" />
        </mxCell>
        <mxCell id="uUt5yb1ADxC-Nz_1EnEv-48" style="edgeStyle=orthogonalEdgeStyle;rounded=0;orthogonalLoop=1;jettySize=auto;html=1;entryX=0;entryY=0.5;entryDx=0;entryDy=0;" parent="1" source="uUt5yb1ADxC-Nz_1EnEv-24" target="uUt5yb1ADxC-Nz_1EnEv-47" edge="1">
          <mxGeometry relative="1" as="geometry" />
        </mxCell>
        <mxCell id="uUt5yb1ADxC-Nz_1EnEv-24" value="Button" style="rounded=1;whiteSpace=wrap;html=1;fillColor=#6a00ff;fontColor=#ffffff;strokeColor=#3700CC;" parent="1" vertex="1">
          <mxGeometry x="520" y="510" width="120" height="60" as="geometry" />
        </mxCell>
        <mxCell id="uUt5yb1ADxC-Nz_1EnEv-25" value="CheckedTextView" style="rounded=1;whiteSpace=wrap;html=1;fillColor=#6a00ff;fontColor=#ffffff;strokeColor=#3700CC;" parent="1" vertex="1">
          <mxGeometry x="520" y="578.75" width="120" height="60" as="geometry" />
        </mxCell>
        <mxCell id="uUt5yb1ADxC-Nz_1EnEv-55" style="edgeStyle=orthogonalEdgeStyle;rounded=0;orthogonalLoop=1;jettySize=auto;html=1;entryX=0;entryY=0.5;entryDx=0;entryDy=0;" parent="1" source="uUt5yb1ADxC-Nz_1EnEv-29" target="uUt5yb1ADxC-Nz_1EnEv-53" edge="1">
          <mxGeometry relative="1" as="geometry" />
        </mxCell>
        <mxCell id="uUt5yb1ADxC-Nz_1EnEv-56" style="edgeStyle=orthogonalEdgeStyle;rounded=0;orthogonalLoop=1;jettySize=auto;html=1;entryX=0;entryY=0.75;entryDx=0;entryDy=0;" parent="1" source="uUt5yb1ADxC-Nz_1EnEv-29" target="uUt5yb1ADxC-Nz_1EnEv-54" edge="1">
          <mxGeometry relative="1" as="geometry" />
        </mxCell>
        <mxCell id="uUt5yb1ADxC-Nz_1EnEv-29" value="AbsSeekBar" style="rounded=1;whiteSpace=wrap;html=1;fillColor=#6a00ff;fontColor=#ffffff;strokeColor=#3700CC;" parent="1" vertex="1">
          <mxGeometry x="520" y="650" width="120" height="60" as="geometry" />
        </mxCell>
        <mxCell id="uUt5yb1ADxC-Nz_1EnEv-31" value="ImageButton" style="rounded=1;whiteSpace=wrap;html=1;fillColor=#6a00ff;fontColor=#ffffff;strokeColor=#3700CC;" parent="1" vertex="1">
          <mxGeometry x="520" y="720" width="120" height="60" as="geometry" />
        </mxCell>
        <mxCell id="uUt5yb1ADxC-Nz_1EnEv-32" value="QuickContactBadge" style="rounded=1;whiteSpace=wrap;html=1;fillColor=#6a00ff;fontColor=#ffffff;strokeColor=#3700CC;" parent="1" vertex="1">
          <mxGeometry x="520" y="790" width="120" height="60" as="geometry" />
        </mxCell>
        <mxCell id="uUt5yb1ADxC-Nz_1EnEv-35" value="VideoView" style="rounded=1;whiteSpace=wrap;html=1;fillColor=#6a00ff;fontColor=#ffffff;strokeColor=#3700CC;" parent="1" vertex="1">
          <mxGeometry x="520" y="860" width="120" height="60" as="geometry" />
        </mxCell>
        <mxCell id="uUt5yb1ADxC-Nz_1EnEv-37" value="DatePicker" style="rounded=1;whiteSpace=wrap;html=1;fillColor=#1ba1e2;fontColor=#ffffff;strokeColor=#006EAF;" parent="1" vertex="1">
          <mxGeometry x="720" y="62.5" width="120" height="60" as="geometry" />
        </mxCell>
        <mxCell id="uUt5yb1ADxC-Nz_1EnEv-38" value="TimePicker" style="rounded=1;whiteSpace=wrap;html=1;fillColor=#1ba1e2;fontColor=#ffffff;strokeColor=#006EAF;" parent="1" vertex="1">
          <mxGeometry x="720" y="131.25" width="120" height="60" as="geometry" />
        </mxCell>
        <mxCell id="uUt5yb1ADxC-Nz_1EnEv-39" value="CalendarView" style="rounded=1;whiteSpace=wrap;html=1;fillColor=#1ba1e2;fontColor=#ffffff;strokeColor=#006EAF;" parent="1" vertex="1">
          <mxGeometry x="720" y="200" width="120" height="60" as="geometry" />
        </mxCell>
        <mxCell id="uUt5yb1ADxC-Nz_1EnEv-43" value="TableLayout" style="rounded=1;whiteSpace=wrap;html=1;fillColor=#1ba1e2;fontColor=#ffffff;strokeColor=#006EAF;" parent="1" vertex="1">
          <mxGeometry x="720" y="270" width="120" height="60" as="geometry" />
        </mxCell>
        <mxCell id="uUt5yb1ADxC-Nz_1EnEv-44" value="RadioGroup" style="rounded=1;whiteSpace=wrap;html=1;fillColor=#1ba1e2;fontColor=#ffffff;strokeColor=#006EAF;" parent="1" vertex="1">
          <mxGeometry x="720" y="340" width="120" height="60" as="geometry" />
        </mxCell>
        <mxCell id="uUt5yb1ADxC-Nz_1EnEv-50" style="edgeStyle=orthogonalEdgeStyle;rounded=0;orthogonalLoop=1;jettySize=auto;html=1;entryX=0;entryY=0.5;entryDx=0;entryDy=0;" parent="1" source="uUt5yb1ADxC-Nz_1EnEv-47" target="uUt5yb1ADxC-Nz_1EnEv-49" edge="1">
          <mxGeometry relative="1" as="geometry" />
        </mxCell>
        <mxCell id="uUt5yb1ADxC-Nz_1EnEv-52" style="edgeStyle=orthogonalEdgeStyle;rounded=0;orthogonalLoop=1;jettySize=auto;html=1;entryX=0;entryY=0.5;entryDx=0;entryDy=0;" parent="1" source="uUt5yb1ADxC-Nz_1EnEv-47" target="uUt5yb1ADxC-Nz_1EnEv-51" edge="1">
          <mxGeometry relative="1" as="geometry" />
        </mxCell>
        <mxCell id="uUt5yb1ADxC-Nz_1EnEv-47" value="CompoundButton" style="rounded=1;whiteSpace=wrap;html=1;fillColor=#1ba1e2;fontColor=#ffffff;strokeColor=#006EAF;" parent="1" vertex="1">
          <mxGeometry x="720" y="510" width="120" height="60" as="geometry" />
        </mxCell>
        <mxCell id="uUt5yb1ADxC-Nz_1EnEv-49" value="CheckBox" style="rounded=1;whiteSpace=wrap;html=1;fillColor=#1ba1e2;fontColor=#ffffff;strokeColor=#006EAF;" parent="1" vertex="1">
          <mxGeometry x="920" y="470" width="120" height="60" as="geometry" />
        </mxCell>
        <mxCell id="uUt5yb1ADxC-Nz_1EnEv-51" value="RadioButton" style="rounded=1;whiteSpace=wrap;html=1;fillColor=#1ba1e2;fontColor=#ffffff;strokeColor=#006EAF;" parent="1" vertex="1">
          <mxGeometry x="920" y="540" width="120" height="60" as="geometry" />
        </mxCell>
        <mxCell id="uUt5yb1ADxC-Nz_1EnEv-53" value="Ratin&lt;span style=&quot;color: rgba(0, 0, 0, 0); font-family: monospace; font-size: 0px; text-align: start; text-wrap: nowrap;&quot;&gt;%3CmxGraphModel%3E%3Croot%3E%3CmxCell%20id%3D%220%22%2F%3E%3CmxCell%20id%3D%221%22%20parent%3D%220%22%2F%3E%3CmxCell%20id%3D%222%22%20value%3D%22CompoundButton%22%20style%3D%22rounded%3D1%3BwhiteSpace%3Dwrap%3Bhtml%3D1%3BfillColor%3D%231ba1e2%3BfontColor%3D%23ffffff%3BstrokeColor%3D%23006EAF%3B%22%20vertex%3D%221%22%20parent%3D%221%22%3E%3CmxGeometry%20x%3D%22720%22%20y%3D%22598.75%22%20width%3D%22120%22%20height%3D%2260%22%20as%3D%22geometry%22%2F%3E%3C%2FmxCell%3E%3C%2Froot%3E%3C%2FmxGraphModel%3E&lt;/span&gt;gBar" style="rounded=1;whiteSpace=wrap;html=1;fillColor=#1ba1e2;fontColor=#ffffff;strokeColor=#006EAF;" parent="1" vertex="1">
          <mxGeometry x="720" y="615" width="120" height="60" as="geometry" />
        </mxCell>
        <mxCell id="uUt5yb1ADxC-Nz_1EnEv-54" value="&lt;div style=&quot;text-align: start;&quot;&gt;SeekBar&lt;/div&gt;" style="rounded=1;whiteSpace=wrap;html=1;fillColor=#1ba1e2;fontColor=#ffffff;strokeColor=#006EAF;" parent="1" vertex="1">
          <mxGeometry x="720" y="685" width="120" height="60" as="geometry" />
        </mxCell>
        <mxCell id="uUt5yb1ADxC-Nz_1EnEv-57" value="&lt;h1 style=&quot;margin-top: 0px;&quot;&gt;Hierarquia de Views&lt;/h1&gt;" style="text;html=1;whiteSpace=wrap;overflow=hidden;rounded=0;" parent="1" vertex="1">
          <mxGeometry x="40" y="62.5" width="250" height="120" as="geometry" />
        </mxCell>
      </root>
    </mxGraphModel>
  </diagram>
</mxfile>
